# AST/ASF file generated using VICON BodyLanguage
# -----------------------------------------------
:version 1.10
:name VICON
:units
  mass 1.0
  length 0.45
  angle deg
:documentation
   .ast/.asf automatically generated from VICON data using
   VICON BodyBuilder and BodyLanguage model FoxedUp or BRILLIANT.MOD
:root
   order TX TY TZ RX RY RZ
   axis XYZ
   position 0 0 0  
   orientation 0 0 0 
:bonedata
  begin
     id 1 
     name lhipjoint
     direction 0.660183 -0.676772 0.325788 
     length 2.75133 
     axis 0 0 0  XYZ
  end
  begin
     id 2 
     name lfemur
     direction 0.34202 -0.939693 0  
     length 7.70317  
     axis 0 0 20  XYZ
    dof rx ry rz
    limits (-160.0 20.0)
           (-70.0 70.0)
           (-60.0 70.0)
  end
  begin
     id 3 
     name ltibia
     direction 0.342105 -0.939662 0   
     length 7.18701   
     axis 0 0 20   XYZ
    dof rx
    limits (-10.0 170.0)
  end
  begin
     id 4 
     name lfoot
     direction 0.14163 -0.389126 0.910232   
     length 2.41719   
     axis -90 7.62852e-016 20   XYZ
    dof rx rz
    limits (-45.0 90.0)
           (-70.0 20.0)
  end
  begin
     id 5 
     name ltoes
     direction 1.53533e-011 -4.21926e-011 1   
     length 1.18611   
     axis -90 7.62852e-016 20   XYZ
    dof rx
    limits (-90.0 20.0)
  end
  begin
     id 6 
     name rhipjoint
     direction -0.6658 -0.67229 0.323631   
     length 2.76968  
     axis 0 0 0  XYZ 
  end
  begin
     id 7 
     name rfemur
     direction -0.34202 -0.939693 0   
     length 7.92547   
     axis 0 0 -20   XYZ
    dof rx ry rz
    limits (-160.0 20.0)
           (-70.0 70.0)
           (-70.0 60.0)
  end
  begin
     id 8 
     name rtibia
     direction -0.342022 -0.939692 0   
     length 7.22641   
     axis 0 0 -20   XYZ
    dof rx
    limits (-10.0 170.0)
 end
 begin
     id 9 
     name rfoot
     direction -0.105675 -0.29034 0.951071   
     length 2.48149  
     axis -90 -7.62852e-016 -20   XYZ
    dof rx rz
    limits (-45.0 90.0)
           (-20.0 70.0)
  end
  begin
     id 10 
     name rtoes
     direction -1.5349e-011 -4.21859e-011 1   
     length 1.23343   
     axis -90 -7.62852e-016 -20   XYZ
    dof rx
    limits (-90.0 20.0)
  end
  begin
     id 11 
     name lowerback
     direction 0.0104173 0.993624 -0.112266   
     length 2.00527   
     axis 0 0 0   XYZ
    dof rx ry rz
    limits (-20.0 45.0)
           (-30.0 30.0)
           (-30.0 30.0)
  end
  begin
     id 12 
     name upperback
     direction 0.00733149 0.999856 -0.0152913   
     length 2.01385   
     axis 0 0 0   XYZ
    dof rx ry rz
    limits (-20.0 45.0)
           (-30.0 30.0)
           (-30.0 30.0)
  end
  begin
     id 13 
     name thorax
     direction 0.0026304 0.999318 0.036841   
     length 2.03734   
     axis 0 0 0   XYZ
    dof rx ry rz
    limits (-20.0 45.0)
           (-30.0 30.0)
           (-30.0 30.0)
  end
  begin
     id 14 
     name lowerneck
     direction 0.0293154 0.998757 0.0403082   
     length 1.65303   
     axis 0 0 0   XYZ
    dof rx ry rz
    limits (-20.0 45.0)
           (-30.0 30.0)
           (-30.0 30.0)
  end
  begin
     id 15 
     name upperneck
     direction -0.0376619 0.998184 -0.0470083   
     length 1.60926   
     axis 0 0 0   XYZ
    dof rx ry rz
    limits (-20.0 45.0)
           (-30.0 30.0)
           (-30.0 30.0)
  end
  begin
     id 16
     name head
     direction -0.0170133 0.999635 -0.0209778  
     length 1.73625  
     axis 0 0 0   XYZ
    dof rx ry rz
    limits (-20.0 45.0)
           (-30.0 30.0)
           (-30.0 30.0)
  end
  begin
     id 17 
     name lclavicle
     direction 0.919857 0.39181 -0.0186333  
     length 3.75313  
     axis 0 0 0   XYZ
    dof ry rz
    limits (-20.0 10.0)
           (0.0 20.0)
  end
  begin
     id 18 
     name lhumerus
     direction 1 -4.48988e-011 1.44029e-027   
     length 5.49313   
     axis 180 -30 -90   XYZ
    dof rx ry rz
    limits (-60.0 90.0)
           (-90.0 90.0)
           (-90.0 90.0)
  end
  begin
     id 19
     name lradius
     direction 1 -4.48924e-011 7.46281e-027   
     length 3.29037   
     axis 180 -30 -90   XYZ
    dof rx
    limits (-10.0 170.0)
  end
  begin
     id 20
     name lwrist
     direction 1 -4.48955e-011 2.19879e-026   
     length 1.64519   
     axis -1.34358e-014 90 90   XYZ
    dof ry
    limits (-180.0 0.0)
 end
  begin
     id 21 
     name lhand
     direction 1 -4.48978e-011 4.39747e-026   
     length 0.729656   
     axis -2.80598e-014 90 90   XYZ
    dof rx rz
    limits (-90.0 90.0)
           (-45.0 45.0)
  end
  begin
     id 22 
     name lfingers
     direction 1 -4.49071e-011 8.79411e-026   
     length 0.588268   
     axis -5.61193e-014 90 90   XYZ
    dof rx
    limits (0.0 90.0)
  end
  begin
     id 23
     name lthumb
     direction 0.707107 -6.34817e-011 0.707107   
     length 0.844638   
     axis -90 45 -9.86923e-015   XYZ
    dof rx rz
    limits (-45.0 45.0)
           (-45.0 45.0)
  end
  begin
     id 24 
     name rclavicle
     direction -0.919898 0.388279 0.0550233   
     length 3.7171  
     axis 0 0 0   XYZ 
    dof ry rz
    limits (-10.0 20.0)
           (-20.0 0.0)
  end
  begin
     id 25 
     name rhumerus
     direction -1 -4.48968e-011 9.98372e-028  
     length 5.23684   
     axis 180 30 90   XYZ
    dof rx ry rz
    limits (-90.0 60.0)
           (-90.0 90.0)
           (-90.0 90.0)
  end
  begin
     id 26 
     name rradius
     direction -1 -4.48956e-011 1.01023e-026   
     length 3.38251   
     axis 180 30 90   XYZ
    dof rx
    limits (-10.0 170.0)
  end
  begin
     id 27 
     name rwrist
     direction -1 -4.4892e-011 2.19886e-026   
     length 1.69126   
     axis -1.34358e-014 -90 -90   XYZ
    dof ry
    limits (-180.0 0.0)
  end
  begin
     id 28
     name rhand
     direction -1 -4.49024e-011 4.39727e-026   
     length 0.691454   
     axis -2.80598e-014 -90 -90   XYZ
    dof rx rz
    limits (-90.0 90.0)
           (-45.0 45.0)
  end
  begin
     id 29
     name rfingers
     direction -1 -4.49097e-011 8.79388e-026   
     length 0.557468   
     axis -5.61193e-014 -90 -90   XYZ
    dof rx
    limits (0.0 90.0)
  end
  begin
     id 30
     name rthumb
     direction -0.707107 -6.34938e-011 0.707107   
     length 0.800416   
     axis -90 -45 9.86923e-015   XYZ
    dof rx rz
    limits (-45.0 45.0)
           (-45.0 45.0)
  end
:hierarchy
  begin
    root lhipjoint rhipjoint lowerback
    lhipjoint lfemur
    lfemur ltibia
    ltibia lfoot
    lfoot ltoes
    rhipjoint rfemur
    rfemur rtibia
    rtibia rfoot
    rfoot rtoes
    lowerback upperback
    upperback thorax
    thorax lowerneck lclavicle rclavicle
    lowerneck upperneck
    upperneck head
    lclavicle lhumerus
    lhumerus lradius
    lradius lwrist
    lwrist lhand lthumb
    lhand lfingers
    rclavicle rhumerus
    rhumerus rradius
    rradius rwrist
    rwrist rhand rthumb
    rhand rfingers
  end

#!OML:ASF H:\BabyWalks\Project 1\Capture day 1\Session 1\baby.ASF
:FULLY-SPECIFIED
:DEGREES
67
root -38.7047 17.4888 -3.41419 -11.9929 76.9969 -10.6091
lowerback 13.3354 -1.2154 1.13465
upperback 5.44345 -1.15623 2.63823
thorax -1.7234 -0.49016 2.27458
lowerneck -4.7791 4.71387 1.57613
upperneck -1.49161 6.28176 -5.93254
head 0.598338 3.11175 -1.98835
rclavicle -7.45443e-015 4.37326e-015
rhumerus -35.3605 15.8283 -82.6666
rradius 44.4211
rwrist 3.45224
rhand -6.94019 -16.9271
rfingers 7.12502
rthumb 18.9283 -46.0261
lclavicle -7.45443e-015 4.37326e-015
lhumerus -38.5072 3.73684 83.1327
lradius 48.0938
lwrist 0.853197
lhand 0.371407 12.4249
lfingers 7.12502
lthumb 25.9461 40.674
rfemur 4.65678 14.6016 25.7029
rtibia 20.319
rfoot -24.6766 -1.48133
rtoes 7.58109
lfemur -17.9861 -7.17052 -11.5119
ltibia 31.0415
lfoot -16.6572 -12.9515
ltoes -7.05503
68
root -38.7059 17.4902 -3.41514 -12.052 77.0091 -10.6649
lowerback 13.3406 -1.20888 1.12891
upperback 5.43177 -1.14846 2.63581
thorax -1.73862 -0.486499 2.27443
lowerneck -4.75662 4.70343 1.60036
upperneck -1.48602 6.26654 -5.93355
head 0.596605 3.10414 -1.99379
rclavicle -2.17669e-014 2.90226e-014
rhumerus -35.3831 15.83 -82.7123
rradius 44.4483
rwrist 3.43834
rhand -6.94936 -16.9225
rfingers 7.12502
rthumb 18.9195 -46.0224
lclavicle -2.17669e-014 2.90226e-014
lhumerus -38.5146 3.67947 83.1448
lradius 48.1099
lwrist 0.870902
lhand 0.374305 12.4153
lfingers 7.12502
lthumb 25.9488 40.6641
rfemur 4.63445 14.6119 25.712
rtibia 20.3366
rfoot -24.6278 -1.49841
rtoes 7.38159
lfemur -17.9727 -7.13467 -11.4995
ltibia 31.0064
lfoot -16.6328 -13.0496
ltoes -6.89204
69
root -38.7071 17.4913 -3.41599 -12.1224 77.0233 -10.7305
lowerback 13.3474 -1.20393 1.12326
upperback 5.42125 -1.14257 2.63547
thorax -1.75333 -0.483743 2.27669
lowerneck -4.73318 4.6948 1.61987
upperneck -1.48352 6.2539 -5.93431
head 0.593652 3.09794 -1.99831
rclavicle 1.05356e-014 7.95139e-016
rhumerus -35.4058 15.8354 -82.7547
rradius 44.4782
rwrist 3.42745
rhand -6.94685 -16.9111
rfingers 7.12502
rthumb 18.9219 -46.0107
lclavicle 1.05356e-014 7.95139e-016
lhumerus -38.5221 3.62709 83.1583
lradius 48.1272
lwrist 0.887582
lhand 0.376776 12.406
lfingers 7.12502
lthumb 25.9512 40.6544
rfemur 4.61443 14.6188 25.7242
rtibia 20.3591
rfoot -24.5863 -1.51703
rtoes 7.19408
lfemur -17.9604 -7.09437 -11.485
ltibia 30.9745
lfoot -16.6121 -13.1554
ltoes -6.73379
70
root -38.7083 17.4921 -3.41675 -12.2064 77.038 -10.8083
lowerback 13.3551 -1.19906 1.12053
upperback 5.41199 -1.13632 2.63558
thorax -1.76731 -0.480746 2.27772
lowerneck -4.70972 4.68737 1.63902
upperneck -1.48396 6.24279 -5.93459
head 0.589795 3.09256 -2.0026
rclavicle -2.74323e-014 -7.55382e-015
rhumerus -35.4324 15.8449 -82.7978
rradius 44.5159
rwrist 3.41017
rhand -6.94006 -16.9046
rfingers 7.12502
rthumb 18.9285 -46.0036
lclavicle -2.74323e-014 -7.55382e-015
lhumerus -38.5281 3.5759 83.1713
lradius 48.1431
lwrist 0.900721
lhand 0.379754 12.4004
lfingers 7.12502
lthumb 25.9541 40.6484
rfemur 4.60187 14.6229 25.7403
rtibia 20.3745
rfoot -24.5457 -1.53572
rtoes 7.0146
lfemur -17.9516 -7.05086 -11.4675
ltibia 30.9518
lfoot -16.6042 -13.2569
ltoes -6.6168
71
root -38.7096 17.4923 -3.41738 -12.2914 77.0546 -10.8885
lowerback 13.3629 -1.19512 1.11624
upperback 5.4017 -1.13148 2.63639
thorax -1.78235 -0.478483 2.28059
lowerneck -4.68424 4.6821 1.65602
upperneck -1.48548 6.23462 -5.93356
head 0.585241 3.08872 -2.00608
rclavicle 2.82274e-014 -1.63003e-014
rhumerus -35.4666 15.8653 -82.8441
rradius 44.5623
rwrist 3.38348
rhand -6.93349 -16.8984
rfingers 7.12502
rthumb 18.9348 -45.9968
lclavicle 2.82274e-014 -1.63003e-014
lhumerus -38.5365 3.52939 83.1832
lradius 48.1588
lwrist 0.910784
lhand 0.382854 12.3922
lfingers 7.12502
lthumb 25.957 40.6398
rfemur 4.60054 14.6186 25.7566
rtibia 20.3753
rfoot -24.5085 -1.55572
rtoes 6.8529
lfemur -17.9525 -7.00539 -11.4492
ltibia 30.9449
lfoot -16.6097 -13.3531
ltoes -6.53131
72
root -38.7108 17.4918 -3.41793 -12.39 77.0718 -10.9826
lowerback 13.3689 -1.19132 1.11426
upperback 5.39313 -1.12653 2.63785
thorax -1.79463 -0.476119 2.28276
lowerneck -4.65941 4.67721 1.67157
upperneck -1.48819 6.22696 -5.9302
head 0.580297 3.08517 -2.00854
rclavicle -6.25178e-014 -1.59028e-015
rhumerus -35.5024 15.8928 -82.8931
rradius 44.6152
rwrist 3.35085
rhand -6.93063 -16.898
rfingers 7.12502
rthumb 18.9375 -45.9961
lclavicle -6.25178e-014 -1.59028e-015
lhumerus -38.5414 3.48543 83.1939
lradius 48.1719
lwrist 0.919393
lhand 0.385969 12.3842
lfingers 7.12502
lthumb 25.96 40.6313
rfemur 4.6136 14.6069 25.7768
rtibia 20.3568
rfoot -24.4718 -1.57779
rtoes 6.69579
lfemur -17.9642 -6.95794 -11.4269
ltibia 30.9583
lfoot -16.6283 -13.4445
ltoes -6.47119
73
root -38.7121 17.4904 -3.41843 -12.4998 77.0904 -11.0892
lowerback 13.3752 -1.18903 1.11474
upperback 5.38409 -1.12322 2.63981
thorax -1.80755 -0.474548 2.2843
lowerneck -4.6358 4.67354 1.68481
upperneck -1.48926 6.2211 -5.92464
head 0.575974 3.08249 -2.00978
rclavicle -1.81888e-014 -3.02153e-014
rhumerus -35.5398 15.9278 -82.9451
rradius 44.6685
rwrist 3.31337
rhand -6.93014 -16.9001
rfingers 7.12502
rthumb 18.938 -45.9981
lclavicle -1.81888e-014 -3.02153e-014
lhumerus -38.5462 3.44731 83.202
lradius 48.1825
lwrist 0.926256
lhand 0.389932 12.3769
lfingers 7.12502
lthumb 25.9638 40.6235
rfemur 4.6407 14.5838 25.7996
rtibia 20.3224
rfoot -24.4398 -1.60181
rtoes 6.54284
lfemur -17.9857 -6.91079 -11.4012
ltibia 30.9876
lfoot -16.6572 -13.5299
ltoes -6.43631
74
root -38.7133 17.4879 -3.41891 -12.6201 77.1097 -11.2072
lowerback 13.3806 -1.18772 1.11818
upperback 5.37554 -1.12085 2.64185
thorax -1.81948 -0.473398 2.28437
lowerneck -4.61559 4.66924 1.69782
upperneck -1.48846 6.2145 -5.91942
head 0.572793 3.07936 -2.01102
rclavicle 2.76311e-014 -5.96354e-015
rhumerus -35.5743 15.9646 -82.9997
rradius 44.718
rwrist 3.27786
rhand -6.93412 -16.9071
rfingers 7.12502
rthumb 18.9342 -46.0055
lclavicle 2.76311e-014 -5.96354e-015
lhumerus -38.5485 3.41473 83.2075
lradius 48.1891
lwrist 0.929288
lhand 0.395486 12.3692
lfingers 7.12502
lthumb 25.9691 40.6149
rfemur 4.68379 14.5463 25.8245
rtibia 20.2713
rfoot -24.4129 -1.62847
rtoes 6.37853
lfemur -18.0162 -6.86402 -11.3722
ltibia 31.0328
lfoot -16.6855 -13.6201
ltoes -6.36136
75
root -38.7144 17.4861 -3.41931 -12.7487 77.1317 -11.3348
lowerback 13.3859 -1.18789 1.12424
upperback 5.36639 -1.12011 2.64383
thorax -1.83201 -0.473032 2.28315
lowerneck -4.59797 4.66376 1.71194
upperneck -1.48417 6.20642 -5.91554
head 0.571184 3.07537 -2.01281
rclavicle 6.16232e-015 -2.06736e-014
rhumerus -35.6017 15.9979 -83.0545
rradius 44.754
rwrist 3.25039
rhand -6.93848 -16.9085
rfingers 7.12502
rthumb 18.93 -46.0074
lclavicle 6.16232e-015 -2.06736e-014
lhumerus -38.5511 3.38746 83.2104
lradius 48.1931
lwrist 0.930321
lhand 0.395931 12.36
lfingers 7.12502
lthumb 25.9696 40.6057
rfemur 4.7257 14.5129 25.8509
rtibia 20.2076
rfoot -24.3761 -1.65239
rtoes 6.23101
lfemur -18.0509 -6.81923 -11.3417
ltibia 31.0861
lfoot -16.7233 -13.7037
ltoes -6.29841
76
root -38.7153 17.484 -3.41975 -12.8937 77.156 -11.4802
lowerback 13.3927 -1.18989 1.13657
upperback 5.35607 -1.12093 2.64565
thorax -1.84666 -0.473367 2.2785
lowerneck -4.58492 4.65822 1.72747
upperneck -1.47465 6.19842 -5.9129
head 0.572093 3.07124 -2.01509
rclavicle -6.30147e-014 1.23246e-014
rhumerus -35.6219 16.024 -83.1083
rradius 44.7743
rwrist 3.238
rhand -6.93807 -16.9008
rfingers 7.12502
rthumb 18.9304 -45.9996
lclavicle -6.30147e-014 1.23246e-014
lhumerus -38.555 3.36575 83.2104
lradius 48.1954
lwrist 0.928229
lhand 0.397241 12.3536
lfingers 7.12502
lthumb 25.9708 40.5991
rfemur 4.77317 14.4687 25.8799
rtibia 20.1384
rfoot -24.3387 -1.67908
rtoes 6.05124
lfemur -18.0881 -6.7771 -11.3077
ltibia 31.1403
lfoot -16.7491 -13.7969
ltoes -6.18731
77
root -38.716 17.482 -3.42025 -13.0541 77.1838 -11.6418
lowerback 13.3982 -1.19358 1.15527
upperback 5.34653 -1.12318 2.64732
thorax -1.8599 -0.474324 2.27026
lowerneck -4.57178 4.65071 1.74319
upperneck -1.46441 6.18783 -5.91188
head 0.573185 3.06581 -2.01798
rclavicle -3.21037e-014 9.54166e-015
rhumerus -35.6333 16.0387 -83.158
rradius 44.7808
rwrist 3.2408
rhand -6.92893 -16.8831
rfingers 7.12502
rthumb 18.9392 -45.981
lclavicle -3.21037e-014 9.54166e-015
lhumerus -38.5573 3.34763 83.2088
lradius 48.1957
lwrist 0.924525
lhand 0.394909 12.3535
lfingers 7.12502
lthumb 25.9686 40.5994
rfemur 4.81839 14.4226 25.9112
rtibia 20.069
rfoot -24.3002 -1.70665
rtoes 5.87022
lfemur -18.1235 -6.74112 -11.2715
ltibia 31.1882
lfoot -16.7616 -13.8962
ltoes -6.03274
